<?xml version="1.0" encoding="utf-8"?>
<!-- Generator: Adobe Illustrator 22.1.0, SVG Export Plug-In . SVG Version: 6.00 Build 0)  -->
<svg version="1.1" id="Layer_1" xmlns="http://www.w3.org/2000/svg" xmlns:xlink="http://www.w3.org/1999/xlink" x="0px" y="0px"
	 viewBox="0 0 74.4 74.5" style="enable-background:new 0 0 74.4 74.5;" xml:space="preserve">
<path d="M73.1,67.2L56.8,50.7c4.1-5.5,6.4-12.2,6.4-19.1c0-8.4-3.3-16.3-9.3-22.3C47.9,3.3,40,0,31.6,0C14.2,0,0,14.2,0,31.6
	C0,49,14.2,63.2,31.6,63.2c6.8,0,13.5-2.3,19.1-6.4l16.4,16.4c0.8,0.8,1.9,1.3,3,1.3c1.2,0,2.3-0.5,3-1.3c0.8-0.8,1.3-1.9,1.3-3
	C74.4,69,73.9,67.9,73.1,67.2z M54.6,31.6c0,12.7-10.3,23-23,23s-23-10.3-23-23c0-12.7,10.3-23,23-23S54.6,18.9,54.6,31.6z"/>
</svg>
