<?xml version="1.0" encoding="utf-8"?>
<!-- Generator: Adobe Illustrator 22.1.0, SVG Export Plug-In . SVG Version: 6.00 Build 0)  -->
<svg version="1.1" id="Layer_1" xmlns="http://www.w3.org/2000/svg" xmlns:xlink="http://www.w3.org/1999/xlink" x="0px" y="0px"
	 viewBox="0 0 66.4 80.5" style="enable-background:new 0 0 66.4 80.5;" xml:space="preserve">
<path d="M64,80.5c1.3,0,2.4-1.1,2.4-2.4c0-0.1,0-0.3,0-0.4l-5-55.3c-0.1-1.3-1.1-2.2-2.4-2.2H48.8h-0.5v-0.5v-4.6
	C48.3,6.8,41.5,0,33.2,0c-8.3,0-15.1,6.8-15.1,15.1v4.6v0.5h-0.5H7.4c-1.3,0-2.3,0.9-2.4,2.2L0,77.9c-0.1,0.7,0.2,1.3,0.6,1.8
	c0.5,0.5,1.1,0.8,1.8,0.8H64z M23,20.2v-0.5v-4.6c0-5.7,4.6-10.3,10.3-10.3c5.7,0,10.3,4.6,10.3,10.3v4.6v0.5H43H23.5H23z
	 M20.6,33.2c1.3,0,2.4-1.1,2.4-2.4v-5.2V25h0.5H43h0.5v0.5v5.2c0,1.3,1.1,2.4,2.4,2.4s2.4-1.1,2.4-2.4v-5.2V25h0.5h7.6h0.5l0,0.5
	l4.5,49.6l0.1,0.6h-0.6H5.6H5l0.1-0.6l4.5-49.6l0-0.5h0.5h7.6h0.5v0.5v5.2C18.1,32.1,19.2,33.2,20.6,33.2z"/>
</svg>
