<?xml version="1.0" encoding="utf-8"?>
<!-- Generator: Adobe Illustrator 22.1.0, SVG Export Plug-In . SVG Version: 6.00 Build 0)  -->
<svg version="1.1" id="Layer_1" xmlns="http://www.w3.org/2000/svg" xmlns:xlink="http://www.w3.org/1999/xlink" x="0px" y="0px"
	 viewBox="0 0 70.5 70.5" style="enable-background:new 0 0 70.5 70.5;" xml:space="preserve">
<style type="text/css">
	.st0{clip-path:url(#SVGID_2_);}
	.st1{fill:#FFFFFF;}
	.st2{fill:#FF3844;}
</style>
<g>
	<defs>
		
			<ellipse id="SVGID_1_" transform="matrix(0.9265 -0.3763 0.3763 0.9265 -10.6744 15.8574)" cx="35.2" cy="35.3" rx="35.2" ry="35.2"/>
	</defs>
	<clipPath id="SVGID_2_">
		<use xlink:href="#SVGID_1_"  style="overflow:visible;"/>
	</clipPath>
	<g class="st0">
		<g>
			<g>
				<rect x="-5.9" y="-7" class="st1" width="110.5" height="84.5"/>
			</g>
			<g>
				<rect x="-5.8" y="-7" class="st2" width="110.4" height="42.2"/>
			</g>
		</g>
		<g>
			<g>
				<path class="st1" d="M25.3,32c-0.8,0.2-1.7,0.3-2.6,0.3c-6.3,0-11.3-5.1-11.3-11.3c0-6.3,5.1-11.3,11.3-11.3
					c0.9,0,1.8,0.1,2.6,0.3c-5,1.2-8.7,5.7-8.7,11C16.6,26.3,20.3,30.8,25.3,32z"/>
			</g>
			<g>
				<g>
					<g>
						<polygon class="st1" points="36.8,19.3 37.6,21.5 35.8,20.1 35.8,20.1 35.8,20.1 33.9,21.5 34.7,19.3 34.7,19.3 34.7,19.3 
							32.8,18 35.1,18 35.7,15.8 36.4,18 36.4,18 36.4,18 38.8,18 36.8,19.3 36.8,19.3 						"/>
					</g>
				</g>
				<g>
					<g>
						<polygon class="st1" points="25.2,19.3 26,21.5 24.1,20.1 24.1,20.1 24.1,20.1 22.2,21.5 23,19.3 23,19.3 23,19.3 21.1,18 
							23.4,18 24,15.8 24.7,18 24.7,18 24.8,18 27.1,18 25.2,19.3 25.2,19.3 						"/>
					</g>
				</g>
				<g>
					<g>
						<polygon class="st1" points="34.9,26 35.7,28.2 33.8,26.8 33.8,26.8 33.8,26.8 32,28.2 32.8,26 32.8,25.9 32.8,25.9 
							30.8,24.7 33.2,24.7 33.8,22.4 34.5,24.7 34.5,24.7 34.5,24.7 36.8,24.7 34.9,25.9 34.9,25.9 						"/>
					</g>
				</g>
				<g>
					<g>
						<polygon class="st1" points="27.6,26 28.4,28.2 26.5,26.8 26.5,26.8 26.5,26.8 24.6,28.2 25.4,26 25.4,25.9 25.4,25.9 
							23.5,24.7 25.8,24.7 26.4,22.4 27.2,24.7 27.1,24.7 27.2,24.7 29.5,24.7 27.6,25.9 27.6,25.9 						"/>
					</g>
				</g>
				<g>
					<g>
						<polygon class="st1" points="31.1,14.9 31.9,17.1 30,15.7 30,15.7 30,15.7 28.1,17.1 28.9,14.9 28.9,14.9 28.9,14.9 27,13.6 
							29.3,13.6 29.9,11.3 30.6,13.6 30.6,13.6 30.6,13.6 33,13.6 31.1,14.9 31.1,14.9 						"/>
					</g>
				</g>
			</g>
		</g>
	</g>
</g>
</svg>
