<?xml version="1.0" encoding="utf-8"?>
<!-- Generator: Adobe Illustrator 22.1.0, SVG Export Plug-In . SVG Version: 6.00 Build 0)  -->
<svg version="1.1" id="Layer_1" xmlns="http://www.w3.org/2000/svg" xmlns:xlink="http://www.w3.org/1999/xlink" x="0px" y="0px"
	 viewBox="0 0 76.4 76.4" style="enable-background:new 0 0 76.4 76.4;" xml:space="preserve">
<style type="text/css">
	.st0{fill:#FFFFFF;}
	.st1{fill:#FF3844;}
</style>
<g>
	<g>
		
			<ellipse transform="matrix(0.1532 -0.9882 0.9882 0.1532 -5.4097 70.1059)" class="st0" cx="38.2" cy="38.2" rx="35.2" ry="35.2"/>
		<path class="st1" d="M70.8,25C63.5,7,43-1.7,25,5.6C11.3,11.1,3.1,24.2,3,38.1h70.4C73.4,33.7,72.6,29.3,70.8,25z"/>
	</g>
	<g>
		<g>
			<path class="st0" d="M28.3,34.9c-0.8,0.2-1.7,0.3-2.6,0.3c-6.3,0-11.3-5.1-11.3-11.3c0-6.3,5.1-11.3,11.3-11.3
				c0.9,0,1.8,0.1,2.6,0.3c-5,1.2-8.7,5.7-8.7,11C19.6,29.2,23.3,33.7,28.3,34.9z"/>
		</g>
		<g>
			<g>
				<g>
					<polygon class="st0" points="39.8,22.2 40.6,24.4 38.8,23 38.8,23 38.8,23 36.9,24.4 37.7,22.2 37.7,22.2 37.7,22.2 35.8,20.9 
						38.1,20.9 38.7,18.7 39.4,20.9 39.4,20.9 39.4,20.9 41.8,20.9 39.8,22.2 					"/>
				</g>
			</g>
			<g>
				<g>
					<polygon class="st0" points="28.2,22.2 29,24.4 27.1,23 27.1,23 27.1,23 25.2,24.4 26,22.2 26,22.2 26,22.2 24.1,20.9 
						26.4,20.9 27,18.7 27.7,20.9 27.7,20.9 27.8,20.9 30.1,20.9 28.2,22.2 					"/>
				</g>
			</g>
			<g>
				<g>
					<polygon class="st0" points="37.9,28.9 38.7,31.1 36.8,29.7 36.8,29.7 36.8,29.7 35,31.1 35.8,28.9 35.8,28.8 35.8,28.8 
						33.8,27.6 36.2,27.6 36.8,25.3 37.5,27.6 37.5,27.6 37.5,27.6 39.8,27.6 37.9,28.8 37.9,28.8 					"/>
				</g>
			</g>
			<g>
				<g>
					<polygon class="st0" points="30.6,28.9 31.4,31.1 29.5,29.7 29.5,29.7 29.5,29.7 27.6,31.1 28.4,28.9 28.4,28.8 28.4,28.8 
						26.5,27.6 28.8,27.6 29.4,25.3 30.2,27.6 30.1,27.6 30.2,27.6 32.5,27.6 30.6,28.8 30.6,28.8 					"/>
				</g>
			</g>
			<g>
				<g>
					<polygon class="st0" points="34.1,17.8 34.9,20 33,18.6 33,18.6 33,18.6 31.1,20 31.9,17.8 31.9,17.8 31.9,17.8 30,16.5 
						32.3,16.5 32.9,14.2 33.6,16.5 33.6,16.5 33.6,16.5 36,16.5 34.1,17.8 					"/>
				</g>
			</g>
		</g>
	</g>
	<path d="M38.2,3c13.9,0,27.1,8.3,32.6,22c7.3,18-1.4,38.5-19.4,45.9c-4.3,1.8-8.8,2.6-13.2,2.6c-13.9,0-27.1-8.3-32.6-22
		C-1.7,33.4,6.9,12.9,25,5.6C29.3,3.8,33.8,3,38.2,3 M38.2,0L38.2,0c-4.9,0-9.8,0.9-14.4,2.8C4.3,10.7-5.1,33.1,2.8,52.6
		c5.9,14.5,19.8,23.8,35.4,23.8c4.9,0,9.8-0.9,14.4-2.8c19.5-7.9,28.9-30.3,21-49.8C67.7,9.4,53.8,0,38.2,0L38.2,0z"/>
</g>
</svg>
