<?xml version="1.0" standalone="no"?>
<!DOCTYPE svg PUBLIC "-//W3C//DTD SVG 20010904//EN"
 "http://www.w3.org/TR/2001/REC-SVG-20010904/DTD/svg10.dtd">
<svg version="1.0" xmlns="http://www.w3.org/2000/svg"
 width="80.000000pt" height="60.000000pt" viewBox="0 0 80.000000 60.000000"
 preserveAspectRatio="xMidYMid meet">
<metadata>
Created by potrace 1.15, written by Peter Selinger 2001-2017
</metadata>
<g transform="translate(0.000000,60.000000) scale(0.100000,-0.100000)"
fill="#000000" stroke="none">
<path d="M169 583 c-48 -3 -58 -7 -64 -26 -4 -13 -8 -17 -12 -9 -6 16 -23 15
-23 -2 0 -7 -9 -25 -21 -40 -24 -31 -28 -55 -31 -201 -1 -86 2 -119 16 -150
16 -37 59 -85 77 -85 12 0 -3 43 -25 73 -18 25 -21 43 -21 130 0 80 8 221 15
257 1 3 5 -6 11 -18 5 -13 11 -75 13 -137 5 -133 18 -188 52 -222 21 -21 31
-24 62 -18 81 14 332 88 343 101 6 7 13 33 17 56 l5 43 13 -60 c7 -33 13 -68
13 -77 1 -17 -32 -31 -104 -43 -21 -4 -55 -15 -75 -25 -68 -34 -136 -53 -220
-59 l-85 -6 32 -18 c58 -31 146 -17 230 36 21 14 65 31 98 37 33 6 70 14 82
16 13 2 35 22 49 44 l26 39 -26 81 c-14 45 -26 88 -26 96 0 8 -4 14 -10 14
-11 0 -13 47 -3 105 l6 40 13 -30 13 -30 1 26 c0 45 -18 50 -177 53 -81 2
-161 5 -178 8 -16 3 -55 3 -86 1z"/>
</g>
</svg>
