<?xml version="1.0" encoding="utf-8"?>
<!-- Generator: Adobe Illustrator 21.1.0, SVG Export Plug-In . SVG Version: 6.00 Build 0)  -->
<svg version="1.1" id="Layer_1" xmlns="http://www.w3.org/2000/svg" xmlns:xlink="http://www.w3.org/1999/xlink" x="0px" y="0px"
	 viewBox="0 0 268.5 110" style="enable-background:new 0 0 268.5 110;" xml:space="preserve">
<g>
	<path d="M53.5,59.5c0,3.3,0,5.7-2.6,10c-6.5,9-16.4,9-19.5,9c-6.9,0-13.9-1.7-18.6-4.7C9,71.3,5.7,68,3.2,62.2
		C1.3,57.8,0,53.2,0,46.6c0-6.8,1.2-12.8,3.7-18c3.2-6.5,8.8-11.6,14-13.5C9.4,21.2,6.5,35.4,7,47.9c0.4,12.6,4,20.7,9.7,24.4
		c3.9,2.4,10,3.5,14.6,3.5c3.7,0,8.1-0.7,10.6-2.3c2.5-1.6,4.6-3.8,4.6-8v-5.3c0-2.5-0.1-4.1-0.7-5.2c-1.1-2.1-2.9-2.4-4.6-2.8
		c-0.5-0.1-3.1-0.2-5.3-0.3v-1.8h17.5V59.5z M49.8,30.8c-0.5-2.9-1.1-4.7-2.2-6.6c-0.6-1.1-1.1-2.2-2.5-3.6c-4.5-5.1-9.4-6.1-13.4-6
		c-4,0.1-7.1,1.1-10.1,3.7c-2.9,2.6-5.1,5.7-6.7,10.4c-1.6,4.8-2.5,10.3-2.5,16.7c0,7.2,0.9,11.8,2.2,16.7c0.7,2.5,2.2,5.7,3.4,8.3
		c-6.1-4.2-8.2-14.9-8.4-22.6C9,34.6,12.3,22.8,18.8,17c5.3-4.7,11.4-4.7,12.4-4.7c7,0,10.2,2.2,14.3,5.2c0.8,0.6,1.7,1.3,2.2,1.3
		c1.1,0,2.2-1.4,2.6-5h3.2v17.3L49.8,30.8z"/>
	<g>
		<g>
			<path d="M92.8,76.7c2.4-0.1,4-0.3,4.9-0.7c1-0.4,1.8-1.1,2.2-2.2c0.3-1,0.5-2.7,0.5-5l-0.1-55.4h6.9l0.1,62.4h18.1
				c3.8,0,6.6-0.6,8.6-1.6c2-1.1,3.4-2.7,4.3-5c0.9-2.4,1.5-5.3,2-9.9h2.5v19.1h-50V76.7z M113,18.1c-0.4,1-0.5,2.7-0.5,5l0.1,50.6
				h-2.9l-0.1-60.3h10.2v1.7c-2,0.1-3.7,0.3-4.7,0.8C114.1,16.3,113.4,17,113,18.1z"/>
			<path d="M204.3,15.1c-2.4,0.1-3.7,0.4-4.7,0.9s-1.7,1.5-2.1,2.7c-0.4,1.2-0.6,2.9-0.6,5.3v26.5c0,4.3-0.3,8.1-0.9,11.3
				c-0.6,3.1-1.5,5.8-2.9,8.1c-1.6,2.6-3.4,4.6-6.4,6.2c-3,1.6-5.8,2.2-10.3,2.3c-9.3,0.1-13.8-1.8-17.4-4.9
				c-1.9-1.6-3.6-3.5-4.6-5.4c-1-1.9-2.1-4.1-2.4-6.8c-0.4-2.7-0.6-6.1-0.6-10.4V13.4h6.8c0.1,7.4,0.1,34.8,0.1,36.9
				c0,10.8,1.5,17.3,5.3,21c2.2,2.2,5.4,3.8,9.6,4.2c1.8,0.3,2.5,0.3,4,0.3c6,0,10.5-2.1,13.2-6.2c2.9-4.4,4-10.5,4-18l-0.1-38.2h10
				V15.1z M160.7,13.4H171v1.7c-2.2,0.1-3.8,0.3-4.8,0.6c-1,0.4-1.7,1.3-2.1,2.3c-0.3,1-0.5,2.7-0.5,5v29.3c0,4.9,0.1,8.7,0.4,11.5
				c0.2,1.4,0.4,3.4,0.9,5.2c-2.8-3.3-4.2-9.3-4.2-18.8L160.7,13.4z"/>
			<path d="M257.3,23.3l-13,18.9l24.2,36.2h-23.8v-2c2.3,0,4-0.1,5.1-0.3c0.9-0.2,1.5-0.6,1.5-1.1c0-0.4-0.3-0.9-0.7-1.6L237,52.9
				l-17.3,25.5h-6.5v-1.6c1.6-0.3,3.5-1.1,5.2-2.4c1.6-1.4,3.4-3.4,5.1-5.9l12.1-17.7l-25-37.3h8.2l41.9,62.5h3.2l-22.5-33.7
				L261,13.4h6.7V15c-2.1,0.3-3.6,1.1-5.3,2.5C260.7,18.8,259,20.8,257.3,23.3z M234.3,15c-4.2,0-6.2,0.7-6.2,2.1
				c0,0.5,0.2,1.2,0.7,2.1l12.6,18.7l-1.6,2.4l-17.9-26.8h12.5V15z"/>
		</g>
		<g>
			<path d="M151.5,92.5h6.3c1.7,0,3,0.4,3.9,1.1c0.9,0.7,1.3,1.8,1.3,3.3c0,1.1-0.2,1.9-0.6,2.5c-0.4,0.6-0.9,1.1-1.7,1.4
				c1.8,0.6,2.7,2,2.7,4.1c0,1.7-0.5,3-1.4,3.7c-0.9,0.7-2.2,1.1-4,1.1h-6.6V92.5z M157.7,94.2h-4.3v6h4.4c1.1,0,1.8-0.3,2.3-0.8
				c0.5-0.5,0.7-1.3,0.7-2.3c0-1-0.3-1.8-0.8-2.2C159.6,94.4,158.8,94.2,157.7,94.2z M157.9,101.8h-4.5v6.2h4.6c1.1,0,2-0.2,2.6-0.7
				c0.6-0.5,0.9-1.3,0.9-2.5c0-0.6-0.1-1.2-0.4-1.6c-0.2-0.4-0.6-0.7-1-0.9C159.4,102,158.7,101.8,157.9,101.8z"/>
			<path d="M171.8,109.8h-1.9v-7.3l-5.5-10h2.2l4.3,8.1l4.3-8.1h2.2l-5.5,10V109.8z"/>
			<path d="M192,102.6v-1.7h4.8v8.5c-2.1,0.4-4,0.6-5.6,0.6c-2.5,0-4.3-0.7-5.2-2.2c-1-1.4-1.5-3.7-1.5-6.7s0.5-5.3,1.5-6.7
				c1-1.5,2.7-2.2,5.2-2.2c1.5,0,3.2,0.2,4.8,0.5l0.8,0.1l-0.1,1.6c-2.1-0.3-3.9-0.5-5.4-0.5c-1.9,0-3.2,0.6-3.9,1.7
				c-0.7,1.1-1,2.9-1,5.5c0,2.6,0.3,4.4,1,5.5c0.7,1.1,1.9,1.7,3.8,1.7c1.2,0,2.4-0.1,3.6-0.3v-5.3H192z"/>
			<path d="M205.3,93.9c-2.5,0-3.7,0.9-3.7,2.8c0,1,0.3,1.8,0.9,2.2c0.6,0.4,1.7,0.8,3.5,1.2c1.8,0.4,3,0.9,3.7,1.5
				c0.7,0.6,1.1,1.7,1.1,3.1c0,3.5-1.8,5.3-5.5,5.3c-1.2,0-2.7-0.1-4.6-0.4l-0.9-0.1l0.2-1.6c2.3,0.3,4,0.4,5.2,0.4
				c2.5,0,3.7-1.2,3.7-3.5c0-0.9-0.3-1.6-0.8-2c-0.5-0.4-1.6-0.8-3-1c-1.9-0.4-3.3-1-4.1-1.6c-0.8-0.7-1.2-1.8-1.2-3.3
				c0-3.1,1.9-4.6,5.6-4.6c1.2,0,2.7,0.1,4.4,0.4l0.9,0.1l-0.2,1.6C207.9,94,206.3,93.9,205.3,93.9z"/>
			<path d="M212.3,94.2v-1.7h12.5v1.7h-5.3v15.6h-1.9V94.2H212.3z"/>
			<path d="M239.7,101.2c0,3.1-0.5,5.3-1.5,6.7c-1,1.4-2.8,2.1-5.4,2.1c-2.6,0-4.4-0.7-5.4-2.1c-1-1.4-1.5-3.6-1.5-6.7
				c0-3,0.5-5.3,1.5-6.8c1-1.5,2.8-2.2,5.3-2.2c2.5,0,4.3,0.7,5.3,2.2C239.2,95.9,239.7,98.2,239.7,101.2z M228,101.2
				c0,2.5,0.3,4.3,1,5.5c0.7,1.1,2,1.7,3.9,1.7c1.9,0,3.2-0.5,3.8-1.6c0.7-1.1,1-2.9,1-5.4c0-2.5-0.3-4.4-1-5.6
				c-0.7-1.2-2-1.7-3.8-1.7s-3.1,0.6-3.8,1.7C228.3,96.8,228,98.7,228,101.2z"/>
			<path d="M253.7,109.5c-1.7,0.3-3.3,0.5-4.6,0.5c-1.4,0-2.5-0.2-3.3-0.6c-0.8-0.4-1.5-1-1.9-1.7c-0.5-0.8-0.8-1.7-0.9-2.7
				c-0.2-1-0.3-2.3-0.3-3.8c0-1.5,0.1-2.8,0.3-3.9c0.2-1,0.5-2,0.9-2.8c0.5-0.8,1.1-1.4,1.9-1.7c0.8-0.4,1.9-0.5,3.2-0.5
				s2.9,0.2,4.7,0.5l-0.1,1.6c-1.7-0.3-3.2-0.4-4.5-0.4c-1.8,0-3,0.5-3.6,1.6c-0.6,1.1-0.9,3-0.9,5.6c0,1.3,0.1,2.4,0.2,3.2
				c0.1,0.8,0.3,1.5,0.6,2.2c0.3,0.6,0.8,1.1,1.4,1.4c0.6,0.3,1.5,0.4,2.7,0.4c1.2,0,2.6-0.1,4.2-0.4L253.7,109.5z"/>
			<path d="M258.7,109.8h-1.9V92.5h1.9v8l2.8-0.1l4.4-7.9h2.2l-4.9,8.7l5.2,8.6h-2.3l-4.6-7.6l-2.9,0.1V109.8z"/>
		</g>
	</g>
	<path d="M75.1,92.5c0,0-0.1-91.7-0.1-92.5h-3.8l0.1,92.5H75.1z"/>
</g>
</svg>
